<?xml version="1.0" encoding="UTF-8"?>
<svg id="Capa_2" data-name="Capa 2" xmlns="http://www.w3.org/2000/svg" viewBox="0 0 371.63 105.96">
  <defs>
    <style>
      .cls-1 {
        fill: #1e1b25;
      }
    </style>
  </defs>
  <g id="Capa_1-2" data-name="Capa 1">
    <g>
      <path class="cls-1" d="m138.24,25.55c-3.84-2-8.6-3.01-14.28-3.01-4.43,0-8.77.54-13.03,1.63-4.18,1.09-8.1,2.55-11.78,4.38l5.39,13.03c3.09-1.5,6.1-2.51,9.02-3.01,2.92-.58,5.51-.88,7.77-.88,3.51,0,6.05.84,7.64,2.51,1.59,1.67,2.38,3.63,2.38,5.89v3.51c-3.71-2.58-8.51-3.89-14.41-3.89-4.18,0-7.98.84-11.4,2.51-3.34,1.67-6.01,4.05-8.02,7.14-2,3.01-3.01,6.68-3.01,11.02,0,4.09.92,7.68,2.76,10.77,1.84,3.09,4.43,5.51,7.77,7.27,3.42,1.67,7.35,2.51,11.78,2.51,6.1,0,11.02-1.42,14.78-4.26.66-.49,1.26-1.04,1.84-1.6l1.29,4.23h14.91v-38.46c0-4.84-.96-9.1-2.88-12.78-1.84-3.67-4.68-6.51-8.52-8.52Zm-9.27,46.22c-1.59,1.42-3.76,2.13-6.51,2.13s-4.93-.71-6.51-2.13-2.38-3.22-2.38-5.39c0-2.34.79-4.18,2.38-5.51s3.76-2,6.51-2,4.93.67,6.51,2c1.67,1.34,2.51,3.17,2.51,5.51,0,2.17-.84,3.97-2.51,5.39Z"/>
      <path class="cls-1" d="m356.86,38.58c-.42-3.09-1.34-5.85-2.76-8.27-1.34-2.42-3.3-4.3-5.89-5.64-2.59-1.42-5.93-2.13-10.02-2.13-3.59,0-7.01.58-10.27,1.75-3.26,1.17-6.26,2.76-9.02,4.76-.93.68-1.82,1.39-2.68,2.11l-2.2-7.12h-13.53v61.26h18.29v-38.68c.85-.81,1.77-1.58,2.76-2.28,1.75-1.25,3.55-2.21,5.39-2.88,1.92-.75,3.76-1.13,5.51-1.13,2.09,0,3.76.58,5.01,1.75,1.25,1.09,1.88,3.38,1.88,6.89v36.33h18.29v-37.33c0-3.26-.25-6.39-.75-9.4Z"/>
      <path class="cls-1" d="m269.09,63.06c-.79.8-1.62,1.54-2.51,2.2-1.67,1.17-3.38,2.09-5.14,2.76-1.75.58-3.55.88-5.39.88-2.09,0-3.84-.54-5.26-1.63-1.42-1.17-2.13-3.47-2.13-6.89V24.05h-18.29v37.33c0,3.42.25,6.68.75,9.77.58,3.01,1.63,5.72,3.13,8.14,1.59,2.34,3.76,4.18,6.51,5.51,2.84,1.34,6.51,2,11.02,2,3.26,0,6.35-.58,9.27-1.75,2.92-1.17,5.68-2.76,8.27-4.76.82-.64,1.6-1.3,2.35-1.96l2.16,6.97h13.65V24.05h-18.41v39.01Z"/>
      <path class="cls-1" d="m215.38,30.31c-1.34-2.42-3.3-4.3-5.89-5.64-2.59-1.42-5.93-2.13-10.02-2.13-3.59,0-7.01.58-10.27,1.75-3.26,1.17-6.26,2.76-9.02,4.76-.04.03-.08.06-.13.1V0h-18.29v85.31h18.29v-38.68c.85-.81,1.77-1.58,2.76-2.28,1.75-1.25,3.55-2.21,5.39-2.88,1.92-.75,3.76-1.13,5.51-1.13,2.09,0,3.76.58,5.01,1.75,1.25,1.09,1.88,3.38,1.88,6.89v36.33h18.29v-37.33c0-3.26-.25-6.39-.75-9.4-.42-3.09-1.34-5.85-2.76-8.27Z"/>
      <circle class="cls-1" cx="364.62" cy="20.67" r="7.01"/>
      <path class="cls-1" d="m4.23,85.83c-.89.23-.52,2.18-.69,2.97-.31,1.43-.59,2.89-.94,4.32-.77,3.12-1.21,6.29-1.96,9.4-.2.82-1.13,2.77-.29,3.31.81.51,3.74-.72,4.62-.95,3.58-.94,7.17-1.88,10.75-2.82,6.83-1.8,13.68-3.52,20.46-5.5,1.86-.54,1.91-.89,2.31-2.73.39-1.78.8-3.56,1.18-5.34.73-3.35,1.46-6.71,2.16-10.07,1.39-6.67,2.59-13.4,4.14-20.04.27-1.16.23-3.47,1.1-4.36.92-.94,2.14,1.18,2.8,1.92,2.3,2.58,4.52,5.23,6.78,7.84,3.9,4.51,7.79,10.36,14.51,9.26,3.1-.51,5.67-1.49,7.67-4,2.06-2.59,2.45-5.78,3.09-8.92,2.72-13.29,5.58-26.55,8.35-39.84.73-3.52,1.61-7.01,2.3-10.53.32-1.64.6-3.29.94-4.93.16-.78.32-1.56.5-2.34.1-.45.68-1.75.44-2.16-.46-.79-1.99.02-2.74.22-1.8.48-3.59.96-5.39,1.44-3.59.96-7.18,1.92-10.78,2.88-3.41.91-6.82,1.82-10.24,2.72-1.75.46-3.5.91-5.25,1.35-1.03.26-2.85.38-3.59,1.29-.61.75-.54,2.14-.79,3.05-.44,1.58-.56,3.22-.97,4.8-.76,2.95-1.32,5.82-1.86,8.82-.56,3.09-1.4,6.19-2.04,9.27-.25,1.22-.34,2.55-.64,3.74-.13.5-.47.74-.58,1.17-.14.55.01,1.23-.12,1.82-.35,1.61-.78,3.2-1.1,4.83-.15.8-.39,3.98-1.09,4.44-1.03.68-5.71-5.63-6.52-6.53-2.28-2.55-4.7-4.99-6.84-7.66-1.79-2.23-3.7-4.19-6.48-5.09-2.7-.88-5.8.12-8.36,1.15-2.53,1.02-4.39,3.43-5.2,5.96-1.87,5.84-2.45,12.05-4.03,17.96-.78,2.91-1.08,5.96-1.81,8.9-.8,3.24-1.46,6.52-2.03,9.82-.23,1.34-.48,2.62-.87,3.9-.18.6-.14,1.2-.28,1.8-.11.46-.46.87-.51,1.34-.07.72-.11,1.45-.15,2.13Z"/>
    </g>
  </g>
</svg>